<svg width="74" height="74" viewBox="0 0 74 74" fill="none" xmlns="http://www.w3.org/2000/svg">
<g clip-path="url(#clip0_6189_17)">
<path fill-rule="evenodd" clip-rule="evenodd" d="M0 74H74V0H0V74Z" fill="#009CDB"/>
<path fill-rule="evenodd" clip-rule="evenodd" d="M64.3034 33.5305C64.3034 32.5211 63.6765 31.6867 63.1245 30.9476C62.6528 30.3166 62.2063 29.724 62.2063 29.1161C62.2063 28.2893 62.6723 27.7574 63.3903 27.7574C63.7484 27.7574 64.0438 27.8936 64.329 28.0272C64.623 28.1644 64.9272 28.3062 65.2987 28.3062C65.7993 28.3062 66.2459 27.7738 66.2459 27.3535C66.2459 26.8463 65.7068 26.32 64.8029 26.32C62.7334 26.32 60.8928 28.6654 60.8928 30.5124C60.8928 31.5181 61.5068 32.3032 62.0479 32.9934C62.4847 33.5504 62.8619 34.03 62.8619 34.5238C62.8619 35.3506 62.0968 35.8471 61.3599 35.8471C60.6224 35.8471 60.1075 35.3846 59.6943 35.0115C59.386 34.7371 59.1193 34.4981 58.8362 34.4981C58.4352 34.4981 58.3444 35.3439 58.3444 35.643C58.3444 36.1215 59.329 36.9134 60.4502 36.9134C62.1497 36.9134 64.3034 35.3198 64.3034 33.5305Z" fill="#FEFEFE"/>
<path fill-rule="evenodd" clip-rule="evenodd" d="M19.1456 20.5249C19.1028 20.5249 19.0567 20.5696 19.0567 20.6107V21.1086C19.0567 21.1435 19.0798 21.1739 19.1168 21.1893C19.1205 21.1893 19.4252 21.2196 19.4252 21.2196L19.8106 21.2551C20.3126 21.3347 20.4446 21.4231 20.4446 21.6748C20.4446 22.0974 19.9698 23.4283 19.3126 25.2707L18.7268 26.9309C18.22 28.3972 17.4339 30.4469 16.74 32.2549C15.9132 34.4132 15.2596 36.1152 15.2596 36.3428C15.2596 36.6168 15.4086 36.6835 16.0154 36.6835C16.6866 36.6835 16.9862 36.5792 17.0535 36.3264C18.2109 32.5042 21.4047 28.1438 23.0485 28.1438C23.5682 28.1438 23.7542 28.3252 23.7542 28.8447C23.7542 29.6932 23.0352 31.2871 22.3399 32.8314C21.7259 34.1922 21.1466 35.4775 21.1466 36.0849C21.1466 36.6461 21.3985 36.9302 21.898 36.9302C23.5383 36.9302 24.7707 35.4594 25.7614 34.2765L25.9017 34.1085C25.9042 34.1049 25.9258 34.0524 25.9258 34.0524L25.8981 33.9929C25.9011 33.9964 25.5593 33.5915 25.5593 33.5915C25.5537 33.5782 25.5348 33.5658 25.5132 33.5601C25.4895 33.557 25.4623 33.5632 25.4402 33.5828C24.8811 34.1727 23.9355 35.0586 23.6688 35.0962C23.5938 35.1018 23.5445 35.0962 23.5162 35.0669C23.4792 35.0289 23.472 34.9497 23.489 34.809C23.5058 34.6835 23.6806 34.2642 23.9216 33.6855C24.5476 32.1845 25.5907 29.6766 25.5907 28.192C25.5907 27.0028 25.0234 26.32 24.0342 26.32C22.0346 26.32 20.4246 28.6011 19.6507 29.6957C19.4734 29.9495 19.3044 30.1875 19.2602 30.1977C19.2463 30.1977 19.2355 30.1937 19.2315 30.1875C19.1985 30.1387 19.3095 29.8776 19.5135 29.4053C19.7299 28.9043 20.0572 28.1458 20.5053 26.9793C22.0065 23.0604 22.6451 20.9647 22.6451 20.7885C22.6451 20.5546 22.4257 20.5249 22.2119 20.5249H19.1456Z" fill="#FEFEFE"/>
<path fill-rule="evenodd" clip-rule="evenodd" d="M14.7551 34.5023C14.7649 34.4782 14.7628 34.4366 14.7433 34.4129C14.7407 34.4089 14.4005 34.0491 14.4005 34.0491C14.3938 34.0327 14.3722 34.0178 14.345 34.0142C14.327 34.0107 14.3049 34.0178 14.2946 34.0306C14.2982 34.0302 14.2545 34.0672 14.2545 34.0672C13.6348 34.6397 12.4323 35.6144 11.3562 35.689C10.9441 35.7208 10.5551 35.5949 10.2668 35.3406C9.91168 35.0301 9.7087 34.5378 9.67376 33.912C9.6018 32.2979 10.9754 29.8501 12.346 28.4149C13.0824 27.6425 13.7587 27.2181 14.2494 27.2181C14.8219 27.2181 15.1811 27.6404 15.5284 28.051C15.8333 28.4092 16.1189 28.7484 16.5203 28.7484C16.6806 28.7484 16.8517 28.6677 16.9797 28.5351C17.1241 28.3819 17.1976 28.1861 17.1899 27.9822C17.1611 27.3501 16.5773 26.3444 15.1359 26.3203C13.4868 26.2914 11.4313 27.2931 9.8978 28.8733C8.4358 30.381 7.67472 32.1647 7.75901 33.8934C7.8222 35.3477 8.60589 36.8996 10.6275 36.8996C12.66 36.8996 14.4586 35.0795 14.7551 34.5023Z" fill="#FEFEFE"/>
<path fill-rule="evenodd" clip-rule="evenodd" d="M41.3856 30.7973C41.3439 30.8842 41.2283 31.1123 41.201 31.1077C41.1908 31.1077 41.1734 31.1052 41.1734 31.1052L41.179 31.0281C41.1852 30.932 41.2875 30.509 41.4149 29.973C41.6575 28.9571 41.9914 27.5671 41.9914 27.1703C41.9914 26.6471 41.7068 26.3609 41.1888 26.3609C40.0977 26.3609 38.4508 28.1518 37.8756 29.1118C37.8669 29.1132 37.8582 29.1328 37.8571 29.1502C37.8557 29.1529 37.8557 29.1575 37.8557 29.1575C37.8557 29.1791 37.8639 29.1986 37.8787 29.2136L38.204 29.5522C38.2113 29.5686 38.2369 29.5836 38.2641 29.5836C38.292 29.5836 38.3177 29.5676 38.33 29.545L38.4271 29.4371C38.4302 29.434 38.5094 29.3317 38.5094 29.3317C38.8788 28.8682 39.6476 27.902 40.0459 27.902C40.2602 27.902 40.3814 28.1205 40.3814 28.5044C40.3814 29.4668 39.3197 32.4054 38.6156 34.3514C38.2174 35.4496 37.9317 36.2476 37.9317 36.3982C37.9317 36.6109 38.0124 36.7076 38.198 36.7076H39.1116C39.3038 36.7076 39.3654 36.5889 39.4965 36.302C39.5032 36.2902 39.9487 35.2286 40.2006 34.711C42.013 31.0096 43.0095 29.1169 43.7694 28.379C44.2737 27.8887 44.6339 27.6683 44.8954 27.6831C45.0964 27.6955 45.2212 27.8455 45.3554 28.0069C45.4997 28.1847 45.6493 28.3666 45.9144 28.3846C46.1021 28.3954 46.2777 28.3296 46.4216 28.1924C46.6467 27.9791 46.7803 27.6128 46.7803 27.2114C46.7803 26.5377 46.3097 26.2987 45.9057 26.2987C44.2475 26.2987 43.0228 27.5193 41.3856 30.7973Z" fill="#FEFEFE"/>
<path fill-rule="evenodd" clip-rule="evenodd" d="M28.4235 34.3144C28.4235 31.3276 30.7956 27.177 33.1312 27.177C33.9047 27.177 34.3518 27.6322 34.3518 28.4262C34.3518 29.658 31.1106 35.3309 29.093 35.3309C28.6696 35.3309 28.4235 35.1654 28.4235 34.3144ZM35.6849 26.1177C35.5405 26.162 35.4553 26.2919 35.3725 26.4168C35.2763 26.5638 35.1828 26.7047 35.0092 26.7047C34.8581 26.7047 34.7039 26.6712 34.5266 26.6336C34.2835 26.5844 33.9813 26.5197 33.5739 26.5197C28.994 26.5197 26.5938 32.6775 26.5938 34.8056C26.5938 36.2501 27.3903 36.8945 28.1754 36.8945C29.1539 36.8945 30.4859 36.5652 32.1658 33.9823C32.1658 33.9823 32.5373 33.3543 32.5846 33.3543C32.6062 33.3543 32.6175 33.3564 32.6268 33.3657C32.6427 33.3847 32.6478 33.4237 32.6268 33.4797L32.4942 33.7902C32.2824 34.2479 31.8919 35.0958 31.8919 35.8745C31.8919 36.2434 31.9823 36.5209 32.1602 36.6976C32.3163 36.8498 32.5354 36.9254 32.8174 36.9223C34.4053 36.8945 35.7795 34.8466 36.2965 34.0758C36.2923 34.081 36.315 34.0357 36.315 34.0357L36.2938 33.9762L35.9485 33.5666C35.9007 33.5291 35.8566 33.5306 35.8252 33.5666L35.4711 33.9987C35.0015 34.5872 34.4172 35.3159 34.0611 35.3159C33.9788 35.3159 33.9274 35.301 33.8981 35.2696C33.8545 35.2253 33.842 35.138 33.8514 34.9613C33.878 34.4668 34.8437 31.9309 35.6197 29.8923C36.1926 28.3876 36.6875 27.0874 36.7056 26.8778C36.7066 26.83 36.6998 26.6712 36.557 26.6039H36.5611L35.9404 26.1857C35.9373 26.1825 35.9095 26.1697 35.9095 26.1697C35.8417 26.1316 35.7544 26.089 35.6849 26.1177Z" fill="#FEFEFE"/>
<path fill-rule="evenodd" clip-rule="evenodd" d="M57.3577 26.9775C57.8788 26.9775 58.2416 27.3363 58.2416 27.8497C58.2416 29.1118 56.7868 29.8523 54.2554 29.8976C54.7128 29.0475 56.0956 26.9775 57.3577 26.9775ZM50.5888 34.022C50.5888 35.7261 51.7004 36.9131 53.2919 36.9131C55.1687 36.9131 57.1528 35.1223 57.6229 34.5041C57.6477 34.4702 57.6383 34.4284 57.6138 34.4068L57.6163 34.4089L57.3064 34.0328C57.2658 34.0025 57.2211 34.0004 57.1903 34.022L56.9343 34.2101C56.314 34.6737 55.163 35.5334 54.3141 35.5334C53.2642 35.5334 52.6136 34.8674 52.6136 33.7903C52.6136 32.4834 53.2518 31.5121 53.7184 30.8014C53.7184 30.8014 53.7616 30.7361 53.775 30.7156C53.8001 30.7176 53.9518 30.7264 53.9518 30.7264L54.9302 30.7598C56.6389 30.7598 59.8307 29.9437 59.8307 27.9823C59.8307 27.177 59.084 26.3204 57.6986 26.3204C54.7621 26.3204 50.5888 30.3019 50.5888 34.022Z" fill="#FEFEFE"/>
<path fill-rule="evenodd" clip-rule="evenodd" d="M49.7337 34.1419C49.763 34.1022 49.7449 34.0637 49.7387 34.0494C49.7316 34.0298 49.3816 33.5914 49.3816 33.5914C49.3657 33.5725 49.3431 33.5632 49.319 33.5632C49.2957 33.5632 49.2747 33.5725 49.2587 33.5904L49.14 33.722C48.25 34.7066 47.7562 35.2498 47.3492 35.2735C47.3029 35.276 47.2356 35.2668 47.1821 35.2128C47.121 35.1527 47.0913 35.0473 47.1015 34.9137C47.1256 34.3639 48.0219 31.7851 49.8353 27.0275L51.1525 23.6199C51.8437 21.8445 52.1896 20.9528 52.1921 20.83C52.1973 20.7556 52.1761 20.6918 52.1356 20.6471C52.0707 20.5762 51.9547 20.5458 51.7747 20.5458H48.6987C48.6524 20.5458 48.616 20.5783 48.6077 20.6265L48.5917 21.1204C48.5917 21.1574 48.616 21.1975 48.6544 21.2037L49.34 21.2648C49.7804 21.3382 49.9557 21.4858 49.9418 21.772C49.9264 22.2027 47.9423 27.1216 47.9423 27.1216C46.877 29.7727 45.0835 34.3793 45.0274 35.4554C45.0037 35.9378 45.1178 36.3249 45.3552 36.5772C45.5701 36.8002 45.8743 36.9133 46.2638 36.9133C47.5141 36.9133 48.7634 35.3552 49.5888 34.3223L49.7316 34.1419H49.7337Z" fill="#FEFEFE"/>
<path fill-rule="evenodd" clip-rule="evenodd" d="M7.76951 43.3941C7.76951 44.8319 8.91035 45.6172 10.027 46.1963L10.5044 46.4337C11.6216 46.9836 12.0764 47.5606 12.0764 48.4214C12.0764 49.4039 11.4413 50.0947 10.5317 50.0947C9.07016 50.0947 8.25925 48.5772 7.9057 47.6732L7.89491 47.6496L7.40002 47.8166L7.4031 47.8391C7.56087 48.7658 7.73662 49.7652 7.85481 50.1579L7.85893 50.1701L8.10097 50.2597L8.74385 50.4873C9.1786 50.6486 9.7228 50.7401 10.2418 50.7401C12.2691 50.7401 13.6874 49.4846 13.6874 47.6809C13.6874 45.9856 12.3955 45.2169 11.4238 44.7821L11.0404 44.6068C9.80143 44.0406 9.29525 43.4922 9.29525 42.7142C9.29525 41.9464 9.76185 41.17 10.7968 41.17C12.0117 41.17 12.4731 42.1243 12.766 43.059L12.7727 43.0827L13.2964 42.983L13.2902 42.9568C13.1597 42.2157 13.0646 41.5574 12.9978 40.9434L12.9958 40.9274L12.6484 40.8149L12.3472 40.727C11.968 40.5919 11.4531 40.5121 10.9731 40.5121C9.08764 40.5121 7.76951 41.6946 7.76951 43.3941Z" fill="#FEFEFE"/>
<path fill-rule="evenodd" clip-rule="evenodd" d="M14.7682 45.7958C14.7682 48.2557 16.4795 50.7399 20.2996 50.7399C21.2853 50.7399 22.5778 50.4506 23.1241 50.2959C23.3918 49.6916 23.7309 48.4376 23.8938 47.7918L23.9 47.7645L23.4313 47.6606L23.4221 47.6766C22.6502 49.2425 21.9266 50.0945 20.2996 50.0945C18.1877 50.0945 16.7692 48.2116 16.7692 45.4084C16.7692 43.4514 17.6938 41.1698 20.2996 41.1698C21.8291 41.1698 22.663 41.825 23.0896 43.3605L23.0958 43.3821L23.5695 43.3189L23.4991 42.6519L23.2875 40.8979H23.269L23.0043 40.8358C22.4924 40.7144 21.6393 40.5119 20.5705 40.5119C17.1563 40.5119 14.7682 42.6821 14.7682 45.7958Z" fill="#FEFEFE"/>
<path fill-rule="evenodd" clip-rule="evenodd" d="M35.0802 40.7437H30.8086V41.212L30.8339 41.215C31.9254 41.3014 32.0647 41.3748 32.0647 43.0157V44.9931H27.5671V43.0157C27.5671 41.3748 27.7027 41.3014 28.7742 41.215L28.8 41.212V40.7437H24.4662V41.212L24.4889 41.215C25.7536 41.3055 25.8419 41.4242 25.8419 43.0157V48.247C25.8419 49.8232 25.7454 49.9563 24.5459 50.0498L24.5244 50.0534V50.5185H28.857V50.0534L28.8328 50.0498C27.7085 49.9619 27.5671 49.8854 27.5671 48.247V45.7358H32.0647V48.247C32.0647 49.8376 31.9778 49.9563 30.7121 50.0498L30.687 50.0534V50.5185H35.0786V50.0534L35.0555 50.0498C33.9203 49.9604 33.7979 49.8931 33.7979 48.247V43.0157C33.7979 41.4242 33.8802 41.3055 35.0832 41.215L35.1079 41.212V40.7437H35.0802Z" fill="#FEFEFE"/>
<path fill-rule="evenodd" clip-rule="evenodd" d="M50.0709 40.7435H46.6043V41.2117L47.1464 41.2507C47.4445 41.2759 47.5971 41.3304 47.6767 41.4471C47.7245 41.5139 47.7486 41.6049 47.7486 41.7338C47.7486 41.8926 47.7126 42.1065 47.6361 42.4034C47.6027 42.5416 46.78 45.788 46.1376 47.9575C46.0127 47.6523 43.5404 40.8793 43.5404 40.8793L43.5343 40.8608H42.9089C42.9089 40.8608 40.6776 47.8594 40.6462 47.955C40.545 47.638 38.9139 42.1629 38.9139 42.1629C38.8522 41.9517 38.8235 41.7883 38.8235 41.6671C38.8235 41.5715 38.8409 41.501 38.8769 41.4455C38.9561 41.3243 39.1257 41.2821 39.3928 41.2472L39.8749 41.2117V41.1886V40.7435H35.7802V41.2117L35.8049 41.2148C36.6039 41.3052 36.8502 41.3885 37.2493 42.6604L39.7167 50.6406H40.4216C40.4216 50.6406 42.7151 43.7513 42.7444 43.6599C42.8569 43.9457 45.2835 50.6246 45.2835 50.6246L45.2923 50.6406H45.9901L45.9942 50.6221C47.372 46.0012 48.5077 42.758 48.5206 42.7241C49.0118 41.3586 49.13 41.3012 50.0725 41.2148L50.0977 41.2117V40.7435H50.0709Z" fill="#FEFEFE"/>
<path fill-rule="evenodd" clip-rule="evenodd" d="M54.5179 43.3644L53.5045 40.6341L53.4845 40.6351L52.8545 40.7014L49.8051 48.5356C49.2922 49.8743 49.1262 49.9314 48.2156 50.0506L48.1925 50.0537V50.5188H51.5651V50.0537L51.1257 50.0013C50.8004 49.9638 50.6355 49.9026 50.5595 49.7834C50.5229 49.7284 50.506 49.6591 50.506 49.567C50.506 49.4288 50.5491 49.2366 50.637 48.9746L50.7172 48.7356C50.912 48.1446 51.133 47.4724 51.3036 47.0876H54.0421C54.3591 47.8902 54.7076 48.7809 54.8525 49.2161C54.9111 49.4026 54.9481 49.5444 54.9481 49.6529C54.9481 49.7119 54.9383 49.7608 54.913 49.7998C54.8592 49.8892 54.7251 49.9474 54.4542 49.9874L54.0148 50.0557V50.5188H58.0031V50.0537L57.979 50.0506C57.1455 49.9622 56.9295 49.8892 56.4132 48.5356L54.5179 43.3644ZM52.6445 43.0983C52.6563 43.1347 53.7694 46.2699 53.7952 46.3377H51.4877C51.5114 46.2699 52.625 43.1347 52.6378 43.0983H52.6445Z" fill="#FEFEFE"/>
<path fill-rule="evenodd" clip-rule="evenodd" d="M62.0874 45.5785C63.7441 45.5785 64.6924 46.3914 64.6924 47.8082C64.6924 49.3304 63.6701 49.8705 62.7154 49.8705C62.2816 49.8839 62.0427 49.8258 61.887 49.6757C61.6496 49.446 61.6049 48.9706 61.6049 48.2225V45.5785H62.0874ZM58.7348 40.7439H58.7076V41.212L58.7317 41.2151C59.7714 41.3014 59.905 41.3744 59.905 43.0157V48.2466C59.905 49.8854 59.7606 49.9619 58.6398 50.0498L58.6161 50.0534V50.5186H62.3655C63.5654 50.5186 64.5834 50.3074 65.2418 49.9199C66.1559 49.3679 66.6004 48.6228 66.6004 47.6382C66.6004 46.2835 65.6112 45.3483 63.957 45.1222C64.6924 44.964 66.0377 44.3302 66.0377 42.9608C66.0377 42.1859 65.7587 41.6236 65.1873 41.2397C64.6128 40.8759 64.0058 40.7439 62.8686 40.7439H58.7348ZM61.6049 42.0857C61.6049 41.7398 61.6049 41.4875 61.7164 41.4288C61.7482 41.413 61.9018 41.3636 62.389 41.3636C62.8259 41.3636 64.2509 41.4916 64.2509 43.156C64.2509 44.3421 63.5134 44.9927 62.1774 44.9927H61.6049V42.0857Z" fill="#FEFEFE"/>
</g>
<defs>
<clipPath id="clip0_6189_17">
<rect width="74" height="74" fill="white"/>
</clipPath>
</defs>
</svg>
